<svg xmlns="http://www.w3.org/2000/svg" xmlns:xlink="http://www.w3.org/1999/xlink" width="64" zoomAndPan="magnify" viewBox="0 0 48 48" height="64" preserveAspectRatio="xMidYMid meet" version="1.0"><defs><clipPath id="1b4ac8c0d6"><path d="M 0.488281 12 L 47.5 12 L 47.5 38.488281 L 0.488281 38.488281 Z M 0.488281 12 " clip-rule="nonzero"/></clipPath><clipPath id="4fb405cb4f"><path d="M 3 7.632812 L 45 7.632812 L 45 36 L 3 36 Z M 3 7.632812 " clip-rule="nonzero"/></clipPath></defs><g clip-path="url(#1b4ac8c0d6)"><path fill="#2b87ae" d="M 44.683594 12.964844 L 44.675781 13.046875 L 42.921875 32.6875 L 42.847656 33.582031 L 41.960938 33.464844 L 41.300781 33.375 C 39.984375 33.203125 38.6875 33.113281 37.445312 33.113281 C 31.464844 33.113281 27.828125 35.15625 26.195312 36.375 L 23.988281 36.542969 L 23.984375 36.542969 L 21.777344 36.375 C 20.144531 35.15625 16.507812 33.113281 10.527344 33.113281 C 9.285156 33.113281 7.988281 33.203125 6.671875 33.375 L 6.011719 33.464844 L 5.128906 33.582031 L 5.050781 32.6875 L 3.300781 13.046875 L 3.289062 12.964844 L 0.5 12.964844 L 3.34375 35.210938 L 22.109375 38.492188 L 25.863281 38.492188 L 44.628906 35.210938 L 47.472656 12.964844 L 44.683594 12.964844 " fill-opacity="1" fill-rule="nonzero"/></g><g clip-path="url(#4fb405cb4f)"><path fill="#2b87ae" d="M 6.480469 11.78125 L 6.585938 12.910156 L 8.019531 28.191406 L 8.515625 28.265625 C 8.605469 28.273438 15.53125 29.351562 20.207031 32.933594 C 17.960938 31.878906 14.785156 30.949219 10.566406 30.949219 C 9.460938 30.949219 8.300781 31.015625 7.054688 31.152344 L 5.4375 12.964844 L 5.34375 11.886719 C 5.738281 11.84375 6.113281 11.8125 6.480469 11.78125 Z M 18.09375 11.734375 C 21.199219 13.398438 22.84375 15.300781 23.324219 15.917969 L 23.324219 34.136719 C 19.289062 29.183594 11.296875 27.445312 9.199219 27.066406 L 7.859375 12.78125 L 7.503906 8.972656 C 12.101562 9.195312 15.578125 10.386719 18.09375 11.734375 Z M 24.648438 15.917969 C 25.128906 15.300781 26.773438 13.398438 29.878906 11.734375 C 32.394531 10.386719 35.871094 9.195312 40.46875 8.972656 L 40.113281 12.78125 L 38.773438 27.066406 C 36.675781 27.445312 28.683594 29.183594 24.648438 34.136719 Z M 41.386719 12.910156 L 41.496094 11.78125 C 41.859375 11.8125 42.234375 11.84375 42.628906 11.886719 L 42.535156 12.964844 L 40.917969 31.152344 C 39.675781 31.015625 38.511719 30.949219 37.40625 30.949219 C 33.1875 30.949219 30.011719 31.878906 27.765625 32.933594 C 32.441406 29.351562 39.367188 28.273438 39.457031 28.265625 L 39.953125 28.191406 Z M 5.898438 32.609375 L 6.5625 32.523438 C 11.09375 31.917969 14.640625 32.394531 17.292969 33.210938 C 17.550781 33.296875 17.804688 33.375 18.046875 33.464844 C 18.292969 33.550781 18.523438 33.640625 18.75 33.730469 C 18.976562 33.820312 19.195312 33.914062 19.40625 34.007812 C 20.449219 34.476562 21.289062 34.980469 21.925781 35.417969 C 22.054688 35.511719 22.175781 35.597656 22.285156 35.679688 L 25.6875 35.679688 C 25.796875 35.597656 25.917969 35.511719 26.046875 35.417969 C 26.683594 34.980469 27.523438 34.476562 28.566406 34.007812 C 28.777344 33.914062 28.996094 33.820312 29.222656 33.730469 C 29.449219 33.640625 29.683594 33.550781 29.925781 33.464844 C 30.167969 33.375 30.421875 33.296875 30.679688 33.210938 C 33.332031 32.394531 36.878906 31.917969 41.414062 32.523438 L 42.074219 32.609375 L 43.824219 12.964844 L 44.019531 10.742188 L 43.402344 10.667969 C 42.777344 10.59375 42.179688 10.535156 41.613281 10.496094 L 41.882812 7.632812 L 41.160156 7.648438 C 34.859375 7.816406 30.496094 9.660156 27.667969 11.507812 C 25.8125 12.722656 24.621094 13.9375 23.988281 14.683594 L 23.984375 14.683594 C 23.351562 13.9375 22.160156 12.722656 20.304688 11.507812 C 17.476562 9.660156 13.113281 7.816406 6.8125 7.648438 L 6.089844 7.632812 L 6.359375 10.496094 C 5.792969 10.535156 5.195312 10.59375 4.570312 10.667969 L 3.953125 10.742188 L 4.148438 12.964844 L 5.898438 32.609375 " fill-opacity="1" fill-rule="nonzero"/></g></svg>